<?xml version="1.0" standalone="no"?>
<!DOCTYPE svg PUBLIC "-//W3C//DTD SVG 1.1//EN" "http://www.w3.org/Graphics/SVG/1.1/DTD/svg11.dtd">
<svg width="80mm" height="80mm" viewBox="-80 -80 80 80" xmlns="http://www.w3.org/2000/svg" version="1.1">
<title>OpenSCAD Model</title>
<path d="
M -80,-0 L 0,-0 L 0,-40 L -20,-40 L -20,-80 L -60,-80
 L -60,-40 L -80,-40 z
M -75,-10 L -74.6194,-11.9134 L -73.5355,-13.5355 L -71.9134,-14.6194 L -70,-15 L -68.0866,-14.6194
 L -66.4645,-13.5355 L -65.3806,-11.9134 L -65,-10 L -65.3806,-8.08658 L -66.4645,-6.46447 L -68.0866,-5.3806
 L -70,-5 L -71.9134,-5.3806 L -73.5355,-6.46447 L -74.6194,-8.08658 z
M -75,-30 L -74.6194,-31.9134 L -73.5355,-33.5355 L -71.9134,-34.6194 L -70,-35 L -68.0866,-34.6194
 L -66.4645,-33.5355 L -65.3806,-31.9134 L -65,-30 L -65.3806,-28.0866 L -66.4645,-26.4645 L -68.0866,-25.3806
 L -70,-25 L -71.9134,-25.3806 L -73.5355,-26.4645 L -74.6194,-28.0866 z
M -55,-10 L -54.6194,-11.9134 L -53.5355,-13.5355 L -51.9134,-14.6194 L -50,-15 L -48.0866,-14.6194
 L -46.4645,-13.5355 L -45.3806,-11.9134 L -45,-10 L -45.3806,-8.08658 L -46.4645,-6.46447 L -48.0866,-5.3806
 L -50,-5 L -51.9134,-5.3806 L -53.5355,-6.46447 L -54.6194,-8.08658 z
M -55,-30 L -54.6194,-31.9134 L -53.5355,-33.5355 L -51.9134,-34.6194 L -50,-35 L -48.0866,-34.6194
 L -46.4645,-33.5355 L -45.3806,-31.9134 L -45,-30 L -45.3806,-28.0866 L -46.4645,-26.4645 L -48.0866,-25.3806
 L -50,-25 L -51.9134,-25.3806 L -53.5355,-26.4645 L -54.6194,-28.0866 z
M -55,-50 L -54.6194,-51.9134 L -53.5355,-53.5355 L -51.9134,-54.6194 L -50,-55 L -48.0866,-54.6194
 L -46.4645,-53.5355 L -45.3806,-51.9134 L -45,-50 L -45.3806,-48.0866 L -46.4645,-46.4645 L -48.0866,-45.3806
 L -50,-45 L -51.9134,-45.3806 L -53.5355,-46.4645 L -54.6194,-48.0866 z
M -55,-70 L -54.6194,-71.9134 L -53.5355,-73.5355 L -51.9134,-74.6194 L -50,-75 L -48.0866,-74.6194
 L -46.4645,-73.5355 L -45.3806,-71.9134 L -45,-70 L -45.3806,-68.0866 L -46.4645,-66.4645 L -48.0866,-65.3806
 L -50,-65 L -51.9134,-65.3806 L -53.5355,-66.4645 L -54.6194,-68.0866 z
M -35,-10 L -34.6194,-11.9134 L -33.5355,-13.5355 L -31.9134,-14.6194 L -30,-15 L -28.0866,-14.6194
 L -26.4645,-13.5355 L -25.3806,-11.9134 L -25,-10 L -25.3806,-8.08658 L -26.4645,-6.46447 L -28.0866,-5.3806
 L -30,-5 L -31.9134,-5.3806 L -33.5355,-6.46447 L -34.6194,-8.08658 z
M -35,-30 L -34.6194,-31.9134 L -33.5355,-33.5355 L -31.9134,-34.6194 L -30,-35 L -28.0866,-34.6194
 L -26.4645,-33.5355 L -25.3806,-31.9134 L -25,-30 L -25.3806,-28.0866 L -26.4645,-26.4645 L -28.0866,-25.3806
 L -30,-25 L -31.9134,-25.3806 L -33.5355,-26.4645 L -34.6194,-28.0866 z
M -35,-50 L -34.6194,-51.9134 L -33.5355,-53.5355 L -31.9134,-54.6194 L -30,-55 L -28.0866,-54.6194
 L -26.4645,-53.5355 L -25.3806,-51.9134 L -25,-50 L -25.3806,-48.0866 L -26.4645,-46.4645 L -28.0866,-45.3806
 L -30,-45 L -31.9134,-45.3806 L -33.5355,-46.4645 L -34.6194,-48.0866 z
M -35,-70 L -34.6194,-71.9134 L -33.5355,-73.5355 L -31.9134,-74.6194 L -30,-75 L -28.0866,-74.6194
 L -26.4645,-73.5355 L -25.3806,-71.9134 L -25,-70 L -25.3806,-68.0866 L -26.4645,-66.4645 L -28.0866,-65.3806
 L -30,-65 L -31.9134,-65.3806 L -33.5355,-66.4645 L -34.6194,-68.0866 z
M -15,-10 L -14.6194,-11.9134 L -13.5355,-13.5355 L -11.9134,-14.6194 L -10,-15 L -8.08658,-14.6194
 L -6.46447,-13.5355 L -5.3806,-11.9134 L -5,-10 L -5.3806,-8.08658 L -6.46447,-6.46447 L -8.08658,-5.3806
 L -10,-5 L -11.9134,-5.3806 L -13.5355,-6.46447 L -14.6194,-8.08658 z
M -15,-30 L -14.6194,-31.9134 L -13.5355,-33.5355 L -11.9134,-34.6194 L -10,-35 L -8.08658,-34.6194
 L -6.46447,-33.5355 L -5.3806,-31.9134 L -5,-30 L -5.3806,-28.0866 L -6.46447,-26.4645 L -8.08658,-25.3806
 L -10,-25 L -11.9134,-25.3806 L -13.5355,-26.4645 L -14.6194,-28.0866 z
" stroke="black" fill="lightgray" stroke-width="0.5"/>
</svg>
