<?xml version="1.0" standalone="no"?>
<!DOCTYPE svg PUBLIC "-//W3C//DTD SVG 1.1//EN" "http://www.w3.org/Graphics/SVG/1.1/DTD/svg11.dtd">
<svg width="80mm" height="80mm" viewBox="-80 -80 80 80" xmlns="http://www.w3.org/2000/svg" version="1.1">
<title>OpenSCAD Model</title>
<path d="
M 0,-40 L -20,-40 L -20,-80 L -60,-80 L -60,-40 L -80,-40
 L -80,-0 L 0,-0 z
M -30.927,-67.1468 L -32.427,-68.2366 L -33,-70 L -32.427,-71.7634 L -30.927,-72.8532 L -29.0729,-72.8532
 L -27.5729,-71.7634 L -27,-70 L -27.5729,-68.2366 L -29.0729,-67.1468 z
M -50.927,-67.1468 L -52.427,-68.2366 L -53,-70 L -52.427,-71.7634 L -50.927,-72.8532 L -49.0729,-72.8532
 L -47.5729,-71.7634 L -47,-70 L -47.5729,-68.2366 L -49.0729,-67.1468 z
M -30.927,-47.1468 L -32.427,-48.2366 L -33,-50 L -32.427,-51.7634 L -30.927,-52.8532 L -29.0729,-52.8532
 L -27.5729,-51.7634 L -27,-50 L -27.5729,-48.2366 L -29.0729,-47.1468 z
M -50.927,-47.1468 L -52.427,-48.2366 L -53,-50 L -52.427,-51.7634 L -50.927,-52.8532 L -49.0729,-52.8532
 L -47.5729,-51.7634 L -47,-50 L -47.5729,-48.2366 L -49.0729,-47.1468 z
M -10.927,-27.1468 L -12.427,-28.2366 L -13,-30 L -12.427,-31.7634 L -10.927,-32.8532 L -9.07294,-32.8532
 L -7.57294,-31.7634 L -7,-30 L -7.57294,-28.2366 L -9.07294,-27.1468 z
M -30.927,-27.1468 L -32.427,-28.2366 L -33,-30 L -32.427,-31.7634 L -30.927,-32.8532 L -29.0729,-32.8532
 L -27.5729,-31.7634 L -27,-30 L -27.5729,-28.2366 L -29.0729,-27.1468 z
M -70.927,-27.1468 L -72.427,-28.2366 L -73,-30 L -72.427,-31.7634 L -70.927,-32.8532 L -69.073,-32.8532
 L -67.573,-31.7634 L -67,-30 L -67.573,-28.2366 L -69.073,-27.1468 z
M -50.927,-27.1468 L -52.427,-28.2366 L -53,-30 L -52.427,-31.7634 L -50.927,-32.8532 L -49.0729,-32.8532
 L -47.5729,-31.7634 L -47,-30 L -47.5729,-28.2366 L -49.0729,-27.1468 z
M -10.927,-7.14682 L -12.427,-8.23663 L -13,-10 L -12.427,-11.7634 L -10.927,-12.8532 L -9.07294,-12.8532
 L -7.57294,-11.7634 L -7,-10 L -7.57294,-8.23663 L -9.07294,-7.14682 z
M -50.927,-7.14682 L -52.427,-8.23663 L -53,-10 L -52.427,-11.7634 L -50.927,-12.8532 L -49.0729,-12.8532
 L -47.5729,-11.7634 L -47,-10 L -47.5729,-8.23663 L -49.0729,-7.14682 z
M -30.927,-7.14682 L -32.427,-8.23663 L -33,-10 L -32.427,-11.7634 L -30.927,-12.8532 L -29.0729,-12.8532
 L -27.5729,-11.7634 L -27,-10 L -27.5729,-8.23663 L -29.0729,-7.14682 z
M -70.927,-7.14682 L -72.427,-8.23663 L -73,-10 L -72.427,-11.7634 L -70.927,-12.8532 L -69.073,-12.8532
 L -67.573,-11.7634 L -67,-10 L -67.573,-8.23663 L -69.073,-7.14682 z
" stroke="black" fill="lightgray" stroke-width="0.5"/>
</svg>
