  0
SECTION
  2
BLOCKS
  0
ENDSEC
  0
SECTION
  2
ENTITIES
  0
LINE
  8
0
 10
-174.498
 20
-22.098
 11
-123.698
 21
-22.098
  0
LINE
  8
0
 10
-123.698
 20
-22.098
 11
-123.698
 21
0
  0
LINE
  8
0
 10
-123.698
 20
0
 11
-123.648
 21
0
  0
LINE
  8
0
 10
-123.648
 20
0
 11
-123.648
 21
3.19133
  0
LINE
  8
0
 10
-123.648
 20
3.19133
 11
-123.247
 21
9.5614
  0
LINE
  8
0
 10
-123.247
 20
9.5614
 11
-122.447
 21
15.8937
  0
LINE
  8
0
 10
-122.447
 20
15.8937
 11
-121.251
 21
22.1634
  0
LINE
  8
0
 10
-121.251
 20
22.1634
 11
-119.664
 21
28.3455
  0
LINE
  8
0
 10
-119.664
 20
28.3455
 11
-117.691
 21
34.4158
  0
LINE
  8
0
 10
-117.691
 20
34.4158
 11
-115.342
 21
40.3502
  0
LINE
  8
0
 10
-115.342
 20
40.3502
 11
-112.624
 21
46.1254
  0
LINE
  8
0
 10
-112.624
 20
46.1254
 11
-109.549
 21
51.7186
  0
LINE
  8
0
 10
-109.549
 20
51.7186
 11
-106.129
 21
57.1077
  0
LINE
  8
0
 10
-106.129
 20
57.1077
 11
-102.378
 21
62.2713
  0
LINE
  8
0
 10
-102.378
 20
62.2713
 11
-98.3093
 21
67.1893
  0
LINE
  8
0
 10
-98.3093
 20
67.1893
 11
-93.94
 21
71.842
  0
LINE
  8
0
 10
-93.94
 20
71.842
 11
-89.2873
 21
76.2113
  0
LINE
  8
0
 10
-89.2873
 20
76.2113
 11
-84.3693
 21
80.2797
  0
LINE
  8
0
 10
-84.3693
 20
80.2797
 11
-79.2057
 21
84.0314
  0
LINE
  8
0
 10
-79.2057
 20
84.0314
 11
-73.8166
 21
87.4514
  0
LINE
  8
0
 10
-73.8166
 20
87.4514
 11
-68.2234
 21
90.5263
  0
LINE
  8
0
 10
-68.2234
 20
90.5263
 11
-62.4482
 21
93.2439
  0
LINE
  8
0
 10
-62.4482
 20
93.2439
 11
-56.5138
 21
95.5935
  0
LINE
  8
0
 10
-56.5138
 20
95.5935
 11
-50.4435
 21
97.5658
  0
LINE
  8
0
 10
-50.4435
 20
97.5658
 11
-44.2614
 21
99.1531
  0
LINE
  8
0
 10
-44.2614
 20
99.1531
 11
-37.9917
 21
100.349
  0
LINE
  8
0
 10
-37.9917
 20
100.349
 11
-31.6594
 21
101.149
  0
LINE
  8
0
 10
-31.6594
 20
101.149
 11
-25.2893
 21
101.55
  0
LINE
  8
0
 10
-25.2893
 20
101.55
 11
-22.098
 21
101.55
  0
LINE
  8
0
 10
-22.098
 20
101.55
 11
-22.098
 21
101.6
  0
LINE
  8
0
 10
-22.098
 20
101.6
 11
0
 21
101.6
  0
LINE
  8
0
 10
0
 20
101.6
 11
0
 21
101.55
  0
LINE
  8
0
 10
0
 20
101.55
 11
3.19133
 21
101.55
  0
LINE
  8
0
 10
3.19133
 20
101.55
 11
9.5614
 21
101.149
  0
LINE
  8
0
 10
9.5614
 20
101.149
 11
15.8937
 21
100.349
  0
LINE
  8
0
 10
15.8937
 20
100.349
 11
22.1634
 21
99.1531
  0
LINE
  8
0
 10
22.1634
 20
99.1531
 11
28.3455
 21
97.5658
  0
LINE
  8
0
 10
28.3455
 20
97.5658
 11
34.4158
 21
95.5935
  0
LINE
  8
0
 10
34.4158
 20
95.5935
 11
40.3502
 21
93.2439
  0
LINE
  8
0
 10
40.3502
 20
93.2439
 11
46.1254
 21
90.5263
  0
LINE
  8
0
 10
46.1254
 20
90.5263
 11
51.7186
 21
87.4514
  0
LINE
  8
0
 10
51.7186
 20
87.4514
 11
57.1077
 21
84.0314
  0
LINE
  8
0
 10
57.1077
 20
84.0314
 11
62.2713
 21
80.2797
  0
LINE
  8
0
 10
62.2713
 20
80.2797
 11
67.1893
 21
76.2113
  0
LINE
  8
0
 10
67.1893
 20
76.2113
 11
71.842
 21
71.842
  0
LINE
  8
0
 10
71.842
 20
71.842
 11
76.2113
 21
67.1893
  0
LINE
  8
0
 10
76.2113
 20
67.1893
 11
80.2797
 21
62.2713
  0
LINE
  8
0
 10
80.2797
 20
62.2713
 11
84.0314
 21
57.1077
  0
LINE
  8
0
 10
84.0314
 20
57.1077
 11
87.4514
 21
51.7186
  0
LINE
  8
0
 10
87.4514
 20
51.7186
 11
90.5263
 21
46.1254
  0
LINE
  8
0
 10
90.5263
 20
46.1254
 11
93.2439
 21
40.3502
  0
LINE
  8
0
 10
93.2439
 20
40.3502
 11
95.5935
 21
34.4158
  0
LINE
  8
0
 10
95.5935
 20
34.4158
 11
97.5658
 21
28.3455
  0
LINE
  8
0
 10
97.5658
 20
28.3455
 11
99.1531
 21
22.1634
  0
LINE
  8
0
 10
99.1531
 20
22.1634
 11
100.349
 21
15.8937
  0
LINE
  8
0
 10
100.349
 20
15.8937
 11
101.149
 21
9.5614
  0
LINE
  8
0
 10
101.149
 20
9.5614
 11
101.55
 21
3.19133
  0
LINE
  8
0
 10
101.55
 20
3.19133
 11
101.55
 21
0
  0
LINE
  8
0
 10
101.55
 20
0
 11
101.6
 21
0
  0
LINE
  8
0
 10
101.6
 20
0
 11
101.6
 21
-22.098
  0
LINE
  8
0
 10
101.6
 20
-22.098
 11
152.4
 21
-22.098
  0
LINE
  8
0
 10
152.4
 20
-22.098
 11
152.4
 21
3.38396e-14
  0
LINE
  8
0
 10
152.4
 20
3.38396e-14
 11
152.325
 21
3.38229e-14
  0
LINE
  8
0
 10
152.325
 20
3.38229e-14
 11
152.325
 21
4.78701
  0
LINE
  8
0
 10
152.325
 20
4.78701
 11
151.724
 21
14.3421
  0
LINE
  8
0
 10
151.724
 20
14.3421
 11
150.524
 21
23.8406
  0
LINE
  8
0
 10
150.524
 20
23.8406
 11
148.73
 21
33.245
  0
LINE
  8
0
 10
148.73
 20
33.245
 11
146.349
 21
42.5182
  0
LINE
  8
0
 10
146.349
 20
42.5182
 11
143.39
 21
51.6236
  0
LINE
  8
0
 10
143.39
 20
51.6236
 11
139.866
 21
60.5253
  0
LINE
  8
0
 10
139.866
 20
60.5253
 11
135.789
 21
69.1882
  0
LINE
  8
0
 10
135.789
 20
69.1882
 11
131.177
 21
77.5779
  0
LINE
  8
0
 10
131.177
 20
77.5779
 11
126.047
 21
85.6615
  0
LINE
  8
0
 10
126.047
 20
85.6615
 11
120.42
 21
93.407
  0
LINE
  8
0
 10
120.42
 20
93.407
 11
114.317
 21
100.784
  0
LINE
  8
0
 10
114.317
 20
100.784
 11
107.763
 21
107.763
  0
LINE
  8
0
 10
107.763
 20
107.763
 11
100.784
 21
114.317
  0
LINE
  8
0
 10
100.784
 20
114.317
 11
93.407
 21
120.42
  0
LINE
  8
0
 10
93.407
 20
120.42
 11
85.6615
 21
126.047
  0
LINE
  8
0
 10
85.6615
 20
126.047
 11
77.5779
 21
131.177
  0
LINE
  8
0
 10
77.5779
 20
131.177
 11
69.1882
 21
135.789
  0
LINE
  8
0
 10
69.1882
 20
135.789
 11
60.5253
 21
139.866
  0
LINE
  8
0
 10
60.5253
 20
139.866
 11
51.6236
 21
143.39
  0
LINE
  8
0
 10
51.6236
 20
143.39
 11
42.5182
 21
146.349
  0
LINE
  8
0
 10
42.5182
 20
146.349
 11
33.245
 21
148.73
  0
LINE
  8
0
 10
33.245
 20
148.73
 11
23.8406
 21
150.524
  0
LINE
  8
0
 10
23.8406
 20
150.524
 11
14.3421
 21
151.724
  0
LINE
  8
0
 10
14.3421
 20
151.724
 11
4.78701
 21
152.325
  0
LINE
  8
0
 10
4.78701
 20
152.325
 11
0
 21
152.325
  0
LINE
  8
0
 10
0
 20
152.325
 11
0
 21
152.4
  0
LINE
  8
0
 10
0
 20
152.4
 11
-22.098
 21
152.4
  0
LINE
  8
0
 10
-22.098
 20
152.4
 11
-22.098
 21
152.325
  0
LINE
  8
0
 10
-22.098
 20
152.325
 11
-26.885
 21
152.325
  0
LINE
  8
0
 10
-26.885
 20
152.325
 11
-36.4401
 21
151.724
  0
LINE
  8
0
 10
-36.4401
 20
151.724
 11
-45.9386
 21
150.524
  0
LINE
  8
0
 10
-45.9386
 20
150.524
 11
-55.343
 21
148.73
  0
LINE
  8
0
 10
-55.343
 20
148.73
 11
-64.6162
 21
146.349
  0
LINE
  8
0
 10
-64.6162
 20
146.349
 11
-73.7216
 21
143.39
  0
LINE
  8
0
 10
-73.7216
 20
143.39
 11
-82.6233
 21
139.866
  0
LINE
  8
0
 10
-82.6233
 20
139.866
 11
-91.2862
 21
135.789
  0
LINE
  8
0
 10
-91.2862
 20
135.789
 11
-99.6759
 21
131.177
  0
LINE
  8
0
 10
-99.6759
 20
131.177
 11
-107.76
 21
126.047
  0
LINE
  8
0
 10
-107.76
 20
126.047
 11
-115.505
 21
120.42
  0
LINE
  8
0
 10
-115.505
 20
120.42
 11
-122.882
 21
114.317
  0
LINE
  8
0
 10
-122.882
 20
114.317
 11
-129.861
 21
107.763
  0
LINE
  8
0
 10
-129.861
 20
107.763
 11
-136.415
 21
100.784
  0
LINE
  8
0
 10
-136.415
 20
100.784
 11
-142.518
 21
93.407
  0
LINE
  8
0
 10
-142.518
 20
93.407
 11
-148.145
 21
85.6615
  0
LINE
  8
0
 10
-148.145
 20
85.6615
 11
-153.275
 21
77.5779
  0
LINE
  8
0
 10
-153.275
 20
77.5779
 11
-157.887
 21
69.1882
  0
LINE
  8
0
 10
-157.887
 20
69.1882
 11
-161.964
 21
60.5253
  0
LINE
  8
0
 10
-161.964
 20
60.5253
 11
-165.488
 21
51.6236
  0
LINE
  8
0
 10
-165.488
 20
51.6236
 11
-168.447
 21
42.5182
  0
LINE
  8
0
 10
-168.447
 20
42.5182
 11
-170.828
 21
33.245
  0
LINE
  8
0
 10
-170.828
 20
33.245
 11
-172.622
 21
23.8406
  0
LINE
  8
0
 10
-172.622
 20
23.8406
 11
-173.822
 21
14.3421
  0
LINE
  8
0
 10
-173.822
 20
14.3421
 11
-174.423
 21
4.78701
  0
LINE
  8
0
 10
-174.423
 20
4.78701
 11
-174.423
 21
3.38229e-14
  0
LINE
  8
0
 10
-174.423
 20
3.38229e-14
 11
-174.498
 21
3.38396e-14
  0
LINE
  8
0
 10
-174.498
 20
3.38396e-14
 11
-174.498
 21
-22.098
  0
LINE
  8
0
 10
-164.506
 20
-11.5265
 11
-164.18
 21
-9.674
  0
LINE
  8
0
 10
-164.18
 20
-9.674
 11
-162.739
 21
-8.46484
  0
LINE
  8
0
 10
-162.739
 20
-8.46484
 11
-160.857
 21
-8.46484
  0
LINE
  8
0
 10
-160.857
 20
-8.46484
 11
-159.416
 21
-9.674
  0
LINE
  8
0
 10
-159.416
 20
-9.674
 11
-159.09
 21
-11.5265
  0
LINE
  8
0
 10
-159.09
 20
-11.5265
 11
-160.03
 21
-13.1556
  0
LINE
  8
0
 10
-160.03
 20
-13.1556
 11
-161.798
 21
-13.799
  0
LINE
  8
0
 10
-161.798
 20
-13.799
 11
-163.566
 21
-13.1556
  0
LINE
  8
0
 10
-163.566
 20
-13.1556
 11
-164.506
 21
-11.5265
  0
LINE
  8
0
 10
-154.131
 20
43.8798
 11
-153.762
 21
46.509
  0
LINE
  8
0
 10
-153.762
 20
46.509
 11
-152.854
 21
49.0039
  0
LINE
  8
0
 10
-152.854
 20
49.0039
 11
-151.447
 21
51.2555
  0
LINE
  8
0
 10
-151.447
 20
51.2555
 11
-149.602
 21
53.1653
  0
LINE
  8
0
 10
-149.602
 20
53.1653
 11
-147.401
 21
54.65
  0
LINE
  8
0
 10
-147.401
 20
54.65
 11
-144.94
 21
55.6446
  0
LINE
  8
0
 10
-144.94
 20
55.6446
 11
-142.325
 21
56.1056
  0
LINE
  8
0
 10
-142.325
 20
56.1056
 11
-139.671
 21
56.013
  0
LINE
  8
0
 10
-139.671
 20
56.013
 11
-137.095
 21
55.3707
  0
LINE
  8
0
 10
-137.095
 20
55.3707
 11
-134.709
 21
54.2068
  0
LINE
  8
0
 10
-134.709
 20
54.2068
 11
-132.617
 21
52.5722
  0
LINE
  8
0
 10
-132.617
 20
52.5722
 11
-130.91
 21
50.5383
  0
LINE
  8
0
 10
-130.91
 20
50.5383
 11
-129.664
 21
48.1941
  0
LINE
  8
0
 10
-129.664
 20
48.1941
 11
-128.932
 21
45.6419
  0
LINE
  8
0
 10
-128.932
 20
45.6419
 11
-128.747
 21
42.9933
  0
LINE
  8
0
 10
-128.747
 20
42.9933
 11
-129.116
 21
40.3642
  0
LINE
  8
0
 10
-129.116
 20
40.3642
 11
-130.024
 21
37.8692
  0
LINE
  8
0
 10
-130.024
 20
37.8692
 11
-131.431
 21
35.6177
  0
LINE
  8
0
 10
-131.431
 20
35.6177
 11
-133.276
 21
33.7078
  0
LINE
  8
0
 10
-133.276
 20
33.7078
 11
-135.477
 21
32.2231
  0
LINE
  8
0
 10
-135.477
 20
32.2231
 11
-137.938
 21
31.2285
  0
LINE
  8
0
 10
-137.938
 20
31.2285
 11
-140.553
 21
30.7675
  0
LINE
  8
0
 10
-140.553
 20
30.7675
 11
-143.206
 21
30.8602
  0
LINE
  8
0
 10
-143.206
 20
30.8602
 11
-145.783
 21
31.5025
  0
LINE
  8
0
 10
-145.783
 20
31.5025
 11
-148.169
 21
32.6663
  0
LINE
  8
0
 10
-148.169
 20
32.6663
 11
-150.261
 21
34.3009
  0
LINE
  8
0
 10
-150.261
 20
34.3009
 11
-151.968
 21
36.3348
  0
LINE
  8
0
 10
-151.968
 20
36.3348
 11
-153.214
 21
38.6791
  0
LINE
  8
0
 10
-153.214
 20
38.6791
 11
-153.946
 21
41.2312
  0
LINE
  8
0
 10
-153.946
 20
41.2312
 11
-154.131
 21
43.8798
  0
LINE
  8
0
 10
-139.106
 20
-11.5265
 11
-138.78
 21
-9.674
  0
LINE
  8
0
 10
-138.78
 20
-9.674
 11
-137.339
 21
-8.46484
  0
LINE
  8
0
 10
-137.339
 20
-8.46484
 11
-135.457
 21
-8.46484
  0
LINE
  8
0
 10
-135.457
 20
-8.46484
 11
-134.016
 21
-9.674
  0
LINE
  8
0
 10
-134.016
 20
-9.674
 11
-133.69
 21
-11.5265
  0
LINE
  8
0
 10
-133.69
 20
-11.5265
 11
-134.63
 21
-13.1556
  0
LINE
  8
0
 10
-134.63
 20
-13.1556
 11
-136.398
 21
-13.799
  0
LINE
  8
0
 10
-136.398
 20
-13.799
 11
-138.166
 21
-13.1556
  0
LINE
  8
0
 10
-138.166
 20
-13.1556
 11
-139.106
 21
-11.5265
  0
LINE
  8
0
 10
-124.583
 20
90.4672
 11
-124.168
 21
93.0896
  0
LINE
  8
0
 10
-124.168
 20
93.0896
 11
-123.216
 21
95.5682
  0
LINE
  8
0
 10
-123.216
 20
95.5682
 11
-121.77
 21
97.7949
  0
LINE
  8
0
 10
-121.77
 20
97.7949
 11
-119.893
 21
99.6723
  0
LINE
  8
0
 10
-119.893
 20
99.6723
 11
-117.666
 21
101.118
  0
LINE
  8
0
 10
-117.666
 20
101.118
 11
-115.188
 21
102.07
  0
LINE
  8
0
 10
-115.188
 20
102.07
 11
-112.565
 21
102.485
  0
LINE
  8
0
 10
-112.565
 20
102.485
 11
-109.914
 21
102.346
  0
LINE
  8
0
 10
-109.914
 20
102.346
 11
-107.349
 21
101.659
  0
LINE
  8
0
 10
-107.349
 20
101.659
 11
-104.984
 21
100.454
  0
LINE
  8
0
 10
-104.984
 20
100.454
 11
-102.92
 21
98.7828
  0
LINE
  8
0
 10
-102.92
 20
98.7828
 11
-101.249
 21
96.7195
  0
LINE
  8
0
 10
-101.249
 20
96.7195
 11
-100.044
 21
94.3538
  0
LINE
  8
0
 10
-100.044
 20
94.3538
 11
-99.3569
 21
91.7893
  0
LINE
  8
0
 10
-99.3569
 20
91.7893
 11
-99.218
 21
89.1379
  0
LINE
  8
0
 10
-99.218
 20
89.1379
 11
-99.6333
 21
86.5156
  0
LINE
  8
0
 10
-99.6333
 20
86.5156
 11
-100.585
 21
84.0369
  0
LINE
  8
0
 10
-100.585
 20
84.0369
 11
-102.031
 21
81.8102
  0
LINE
  8
0
 10
-102.031
 20
81.8102
 11
-103.908
 21
79.9328
  0
LINE
  8
0
 10
-103.908
 20
79.9328
 11
-106.135
 21
78.4868
  0
LINE
  8
0
 10
-106.135
 20
78.4868
 11
-108.614
 21
77.5353
  0
LINE
  8
0
 10
-108.614
 20
77.5353
 11
-111.236
 21
77.12
  0
LINE
  8
0
 10
-111.236
 20
77.12
 11
-113.887
 21
77.2589
  0
LINE
  8
0
 10
-113.887
 20
77.2589
 11
-116.452
 21
77.9461
  0
LINE
  8
0
 10
-116.452
 20
77.9461
 11
-118.817
 21
79.1514
  0
LINE
  8
0
 10
-118.817
 20
79.1514
 11
-120.881
 21
80.8223
  0
LINE
  8
0
 10
-120.881
 20
80.8223
 11
-122.552
 21
82.8856
  0
LINE
  8
0
 10
-122.552
 20
82.8856
 11
-123.757
 21
85.2513
  0
LINE
  8
0
 10
-123.757
 20
85.2513
 11
-124.444
 21
87.8158
  0
LINE
  8
0
 10
-124.444
 20
87.8158
 11
-124.583
 21
90.4672
  0
LINE
  8
0
 10
-78.2036
 20
120.227
 11
-77.7426
 21
122.842
  0
LINE
  8
0
 10
-77.7426
 20
122.842
 11
-76.748
 21
125.303
  0
LINE
  8
0
 10
-76.748
 20
125.303
 11
-75.2633
 21
127.504
  0
LINE
  8
0
 10
-75.2633
 20
127.504
 11
-73.3535
 21
129.349
  0
LINE
  8
0
 10
-73.3535
 20
129.349
 11
-71.1019
 21
130.756
  0
LINE
  8
0
 10
-71.1019
 20
130.756
 11
-68.607
 21
131.664
  0
LINE
  8
0
 10
-68.607
 20
131.664
 11
-65.9778
 21
132.033
  0
LINE
  8
0
 10
-65.9778
 20
132.033
 11
-63.3292
 21
131.848
  0
LINE
  8
0
 10
-63.3292
 20
131.848
 11
-60.7771
 21
131.116
  0
LINE
  8
0
 10
-60.7771
 20
131.116
 11
-58.4328
 21
129.87
  0
LINE
  8
0
 10
-58.4328
 20
129.87
 11
-56.3989
 21
128.163
  0
LINE
  8
0
 10
-56.3989
 20
128.163
 11
-54.7643
 21
126.071
  0
LINE
  8
0
 10
-54.7643
 20
126.071
 11
-53.6005
 21
123.685
  0
LINE
  8
0
 10
-53.6005
 20
123.685
 11
-52.9582
 21
121.108
  0
LINE
  8
0
 10
-52.9582
 20
121.108
 11
-52.8655
 21
118.455
  0
LINE
  8
0
 10
-52.8655
 20
118.455
 11
-53.3265
 21
115.84
  0
LINE
  8
0
 10
-53.3265
 20
115.84
 11
-54.3211
 21
113.379
  0
LINE
  8
0
 10
-54.3211
 20
113.379
 11
-55.8058
 21
111.178
  0
LINE
  8
0
 10
-55.8058
 20
111.178
 11
-57.7157
 21
109.333
  0
LINE
  8
0
 10
-57.7157
 20
109.333
 11
-59.9672
 21
107.926
  0
LINE
  8
0
 10
-59.9672
 20
107.926
 11
-62.4622
 21
107.018
  0
LINE
  8
0
 10
-62.4622
 20
107.018
 11
-65.0913
 21
106.649
  0
LINE
  8
0
 10
-65.0913
 20
106.649
 11
-67.7399
 21
106.834
  0
LINE
  8
0
 10
-67.7399
 20
106.834
 11
-70.2921
 21
107.566
  0
LINE
  8
0
 10
-70.2921
 20
107.566
 11
-72.6363
 21
108.812
  0
LINE
  8
0
 10
-72.6363
 20
108.812
 11
-74.6702
 21
110.519
  0
LINE
  8
0
 10
-74.6702
 20
110.519
 11
-76.3048
 21
112.611
  0
LINE
  8
0
 10
-76.3048
 20
112.611
 11
-77.4687
 21
114.997
  0
LINE
  8
0
 10
-77.4687
 20
114.997
 11
-78.111
 21
117.573
  0
LINE
  8
0
 10
-78.111
 20
117.573
 11
-78.2036
 21
120.227
  0
LINE
  8
0
 10
-13.6332
 20
113.844
 11
-13.6332
 21
114.756
  0
LINE
  8
0
 10
-13.6332
 20
114.756
 11
-13.3215
 21
115.612
  0
LINE
  8
0
 10
-13.3215
 20
115.612
 11
-12.7357
 21
116.31
  0
LINE
  8
0
 10
-12.7357
 20
116.31
 11
-11.9465
 21
116.766
  0
LINE
  8
0
 10
-11.9465
 20
116.766
 11
-11.049
 21
116.924
  0
LINE
  8
0
 10
-11.049
 20
116.924
 11
-10.1515
 21
116.766
  0
LINE
  8
0
 10
-10.1515
 20
116.766
 11
-9.36231
 21
116.31
  0
LINE
  8
0
 10
-9.36231
 20
116.31
 11
-8.77653
 21
115.612
  0
LINE
  8
0
 10
-8.77653
 20
115.612
 11
-8.46484
 21
114.756
  0
LINE
  8
0
 10
-8.46484
 20
114.756
 11
-8.46484
 21
113.844
  0
LINE
  8
0
 10
-8.46484
 20
113.844
 11
-8.77653
 21
112.988
  0
LINE
  8
0
 10
-8.77653
 20
112.988
 11
-9.36231
 21
112.29
  0
LINE
  8
0
 10
-9.36231
 20
112.29
 11
-10.1515
 21
111.834
  0
LINE
  8
0
 10
-10.1515
 20
111.834
 11
-11.049
 21
111.676
  0
LINE
  8
0
 10
-11.049
 20
111.676
 11
-11.9465
 21
111.834
  0
LINE
  8
0
 10
-11.9465
 20
111.834
 11
-12.7357
 21
112.29
  0
LINE
  8
0
 10
-12.7357
 20
112.29
 11
-13.3215
 21
112.988
  0
LINE
  8
0
 10
-13.3215
 20
112.988
 11
-13.6332
 21
113.844
  0
LINE
  8
0
 10
-13.6332
 20
139.244
 11
-13.6332
 21
140.156
  0
LINE
  8
0
 10
-13.6332
 20
140.156
 11
-13.3215
 21
141.012
  0
LINE
  8
0
 10
-13.3215
 20
141.012
 11
-12.7357
 21
141.71
  0
LINE
  8
0
 10
-12.7357
 20
141.71
 11
-11.9465
 21
142.166
  0
LINE
  8
0
 10
-11.9465
 20
142.166
 11
-11.049
 21
142.324
  0
LINE
  8
0
 10
-11.049
 20
142.324
 11
-10.1515
 21
142.166
  0
LINE
  8
0
 10
-10.1515
 20
142.166
 11
-9.36231
 21
141.71
  0
LINE
  8
0
 10
-9.36231
 20
141.71
 11
-8.77653
 21
141.012
  0
LINE
  8
0
 10
-8.77653
 20
141.012
 11
-8.46484
 21
140.156
  0
LINE
  8
0
 10
-8.46484
 20
140.156
 11
-8.46484
 21
139.244
  0
LINE
  8
0
 10
-8.46484
 20
139.244
 11
-8.77653
 21
138.388
  0
LINE
  8
0
 10
-8.77653
 20
138.388
 11
-9.36231
 21
137.69
  0
LINE
  8
0
 10
-9.36231
 20
137.69
 11
-10.1515
 21
137.234
  0
LINE
  8
0
 10
-10.1515
 20
137.234
 11
-11.049
 21
137.076
  0
LINE
  8
0
 10
-11.049
 20
137.076
 11
-11.9465
 21
137.234
  0
LINE
  8
0
 10
-11.9465
 20
137.234
 11
-12.7357
 21
137.69
  0
LINE
  8
0
 10
-12.7357
 20
137.69
 11
-13.3215
 21
138.388
  0
LINE
  8
0
 10
-13.3215
 20
138.388
 11
-13.6332
 21
139.244
  0
LINE
  8
0
 10
30.7675
 20
118.455
 11
30.8602
 21
121.108
  0
LINE
  8
0
 10
30.8602
 20
121.108
 11
31.5025
 21
123.685
  0
LINE
  8
0
 10
31.5025
 20
123.685
 11
32.6663
 21
126.071
  0
LINE
  8
0
 10
32.6663
 20
126.071
 11
34.3009
 21
128.163
  0
LINE
  8
0
 10
34.3009
 20
128.163
 11
36.3348
 21
129.87
  0
LINE
  8
0
 10
36.3348
 20
129.87
 11
38.6791
 21
131.116
  0
LINE
  8
0
 10
38.6791
 20
131.116
 11
41.2312
 21
131.848
  0
LINE
  8
0
 10
41.2312
 20
131.848
 11
43.8798
 21
132.033
  0
LINE
  8
0
 10
43.8798
 20
132.033
 11
46.509
 21
131.664
  0
LINE
  8
0
 10
46.509
 20
131.664
 11
49.0039
 21
130.756
  0
LINE
  8
0
 10
49.0039
 20
130.756
 11
51.2555
 21
129.349
  0
LINE
  8
0
 10
51.2555
 20
129.349
 11
53.1653
 21
127.504
  0
LINE
  8
0
 10
53.1653
 20
127.504
 11
54.65
 21
125.303
  0
LINE
  8
0
 10
54.65
 20
125.303
 11
55.6446
 21
122.842
  0
LINE
  8
0
 10
55.6446
 20
122.842
 11
56.1056
 21
120.227
  0
LINE
  8
0
 10
56.1056
 20
120.227
 11
56.013
 21
117.573
  0
LINE
  8
0
 10
56.013
 20
117.573
 11
55.3707
 21
114.997
  0
LINE
  8
0
 10
55.3707
 20
114.997
 11
54.2068
 21
112.611
  0
LINE
  8
0
 10
54.2068
 20
112.611
 11
52.5722
 21
110.519
  0
LINE
  8
0
 10
52.5722
 20
110.519
 11
50.5383
 21
108.812
  0
LINE
  8
0
 10
50.5383
 20
108.812
 11
48.1941
 21
107.566
  0
LINE
  8
0
 10
48.1941
 20
107.566
 11
45.6419
 21
106.834
  0
LINE
  8
0
 10
45.6419
 20
106.834
 11
42.9933
 21
106.649
  0
LINE
  8
0
 10
42.9933
 20
106.649
 11
40.3642
 21
107.018
  0
LINE
  8
0
 10
40.3642
 20
107.018
 11
37.8692
 21
107.926
  0
LINE
  8
0
 10
37.8692
 20
107.926
 11
35.6177
 21
109.333
  0
LINE
  8
0
 10
35.6177
 20
109.333
 11
33.7078
 21
111.178
  0
LINE
  8
0
 10
33.7078
 20
111.178
 11
32.2231
 21
113.379
  0
LINE
  8
0
 10
32.2231
 20
113.379
 11
31.2285
 21
115.84
  0
LINE
  8
0
 10
31.2285
 20
115.84
 11
30.7675
 21
118.455
  0
LINE
  8
0
 10
77.12
 20
89.1379
 11
77.2589
 21
91.7893
  0
LINE
  8
0
 10
77.2589
 20
91.7893
 11
77.9461
 21
94.3538
  0
LINE
  8
0
 10
77.9461
 20
94.3538
 11
79.1514
 21
96.7195
  0
LINE
  8
0
 10
79.1514
 20
96.7195
 11
80.8223
 21
98.7828
  0
LINE
  8
0
 10
80.8223
 20
98.7828
 11
82.8856
 21
100.454
  0
LINE
  8
0
 10
82.8856
 20
100.454
 11
85.2513
 21
101.659
  0
LINE
  8
0
 10
85.2513
 20
101.659
 11
87.8158
 21
102.346
  0
LINE
  8
0
 10
87.8158
 20
102.346
 11
90.4672
 21
102.485
  0
LINE
  8
0
 10
90.4672
 20
102.485
 11
93.0896
 21
102.07
  0
LINE
  8
0
 10
93.0896
 20
102.07
 11
95.5682
 21
101.118
  0
LINE
  8
0
 10
95.5682
 20
101.118
 11
97.7949
 21
99.6723
  0
LINE
  8
0
 10
97.7949
 20
99.6723
 11
99.6723
 21
97.7949
  0
LINE
  8
0
 10
99.6723
 20
97.7949
 11
101.118
 21
95.5682
  0
LINE
  8
0
 10
101.118
 20
95.5682
 11
102.07
 21
93.0896
  0
LINE
  8
0
 10
102.07
 20
93.0896
 11
102.485
 21
90.4672
  0
LINE
  8
0
 10
102.485
 20
90.4672
 11
102.346
 21
87.8158
  0
LINE
  8
0
 10
102.346
 20
87.8158
 11
101.659
 21
85.2513
  0
LINE
  8
0
 10
101.659
 20
85.2513
 11
100.454
 21
82.8856
  0
LINE
  8
0
 10
100.454
 20
82.8856
 11
98.7828
 21
80.8223
  0
LINE
  8
0
 10
98.7828
 20
80.8223
 11
96.7195
 21
79.1514
  0
LINE
  8
0
 10
96.7195
 20
79.1514
 11
94.3538
 21
77.9461
  0
LINE
  8
0
 10
94.3538
 20
77.9461
 11
91.7893
 21
77.2589
  0
LINE
  8
0
 10
91.7893
 20
77.2589
 11
89.1379
 21
77.12
  0
LINE
  8
0
 10
89.1379
 20
77.12
 11
86.5156
 21
77.5353
  0
LINE
  8
0
 10
86.5156
 20
77.5353
 11
84.0369
 21
78.4868
  0
LINE
  8
0
 10
84.0369
 20
78.4868
 11
81.8102
 21
79.9328
  0
LINE
  8
0
 10
81.8102
 20
79.9328
 11
79.9328
 21
81.8102
  0
LINE
  8
0
 10
79.9328
 20
81.8102
 11
78.4868
 21
84.0369
  0
LINE
  8
0
 10
78.4868
 20
84.0369
 11
77.5353
 21
86.5156
  0
LINE
  8
0
 10
77.5353
 20
86.5156
 11
77.12
 21
89.1379
  0
LINE
  8
0
 10
106.649
 20
42.9933
 11
106.834
 21
45.6419
  0
LINE
  8
0
 10
106.834
 20
45.6419
 11
107.566
 21
48.1941
  0
LINE
  8
0
 10
107.566
 20
48.1941
 11
108.812
 21
50.5383
  0
LINE
  8
0
 10
108.812
 20
50.5383
 11
110.519
 21
52.5722
  0
LINE
  8
0
 10
110.519
 20
52.5722
 11
112.611
 21
54.2068
  0
LINE
  8
0
 10
112.611
 20
54.2068
 11
114.997
 21
55.3707
  0
LINE
  8
0
 10
114.997
 20
55.3707
 11
117.573
 21
56.013
  0
LINE
  8
0
 10
117.573
 20
56.013
 11
120.227
 21
56.1056
  0
LINE
  8
0
 10
120.227
 20
56.1056
 11
122.842
 21
55.6446
  0
LINE
  8
0
 10
122.842
 20
55.6446
 11
125.303
 21
54.65
  0
LINE
  8
0
 10
125.303
 20
54.65
 11
127.504
 21
53.1653
  0
LINE
  8
0
 10
127.504
 20
53.1653
 11
129.349
 21
51.2555
  0
LINE
  8
0
 10
129.349
 20
51.2555
 11
130.756
 21
49.0039
  0
LINE
  8
0
 10
130.756
 20
49.0039
 11
131.664
 21
46.509
  0
LINE
  8
0
 10
131.664
 20
46.509
 11
132.033
 21
43.8798
  0
LINE
  8
0
 10
132.033
 20
43.8798
 11
131.848
 21
41.2312
  0
LINE
  8
0
 10
131.848
 20
41.2312
 11
131.116
 21
38.6791
  0
LINE
  8
0
 10
131.116
 20
38.6791
 11
129.87
 21
36.3348
  0
LINE
  8
0
 10
129.87
 20
36.3348
 11
128.163
 21
34.3009
  0
LINE
  8
0
 10
128.163
 20
34.3009
 11
126.071
 21
32.6663
  0
LINE
  8
0
 10
126.071
 20
32.6663
 11
123.685
 21
31.5025
  0
LINE
  8
0
 10
123.685
 20
31.5025
 11
121.108
 21
30.8602
  0
LINE
  8
0
 10
121.108
 20
30.8602
 11
118.455
 21
30.7675
  0
LINE
  8
0
 10
118.455
 20
30.7675
 11
115.84
 21
31.2285
  0
LINE
  8
0
 10
115.84
 20
31.2285
 11
113.379
 21
32.2231
  0
LINE
  8
0
 10
113.379
 20
32.2231
 11
111.178
 21
33.7078
  0
LINE
  8
0
 10
111.178
 20
33.7078
 11
109.333
 21
35.6177
  0
LINE
  8
0
 10
109.333
 20
35.6177
 11
107.926
 21
37.8692
  0
LINE
  8
0
 10
107.926
 20
37.8692
 11
107.018
 21
40.3642
  0
LINE
  8
0
 10
107.018
 20
40.3642
 11
106.649
 21
42.9933
  0
LINE
  8
0
 10
111.592
 20
-11.5265
 11
111.918
 21
-9.674
  0
LINE
  8
0
 10
111.918
 20
-9.674
 11
113.359
 21
-8.46484
  0
LINE
  8
0
 10
113.359
 20
-8.46484
 11
115.241
 21
-8.46484
  0
LINE
  8
0
 10
115.241
 20
-8.46484
 11
116.682
 21
-9.674
  0
LINE
  8
0
 10
116.682
 20
-9.674
 11
117.008
 21
-11.5265
  0
LINE
  8
0
 10
117.008
 20
-11.5265
 11
116.068
 21
-13.1556
  0
LINE
  8
0
 10
116.068
 20
-13.1556
 11
114.3
 21
-13.799
  0
LINE
  8
0
 10
114.3
 20
-13.799
 11
112.532
 21
-13.1556
  0
LINE
  8
0
 10
112.532
 20
-13.1556
 11
111.592
 21
-11.5265
  0
LINE
  8
0
 10
136.992
 20
-11.5265
 11
137.318
 21
-9.674
  0
LINE
  8
0
 10
137.318
 20
-9.674
 11
138.759
 21
-8.46484
  0
LINE
  8
0
 10
138.759
 20
-8.46484
 11
140.641
 21
-8.46484
  0
LINE
  8
0
 10
140.641
 20
-8.46484
 11
142.082
 21
-9.674
  0
LINE
  8
0
 10
142.082
 20
-9.674
 11
142.408
 21
-11.5265
  0
LINE
  8
0
 10
142.408
 20
-11.5265
 11
141.468
 21
-13.1556
  0
LINE
  8
0
 10
141.468
 20
-13.1556
 11
139.7
 21
-13.799
  0
LINE
  8
0
 10
139.7
 20
-13.799
 11
137.932
 21
-13.1556
  0
LINE
  8
0
 10
137.932
 20
-13.1556
 11
136.992
 21
-11.5265
  0
ENDSEC
  0
SECTION
  2
OBJECTS
  0
DICTIONARY
  0
ENDSEC
  0
EOF
