<?xml version="1.0" standalone="no"?>
<!DOCTYPE svg PUBLIC "-//W3C//DTD SVG 1.1//EN" "http://www.w3.org/Graphics/SVG/1.1/DTD/svg11.dtd">
<svg width="328mm" height="176mm" viewBox="-175 -153 328 176" xmlns="http://www.w3.org/2000/svg" version="1.1">
<title>OpenSCAD Model</title>
<path d="
M -174.498,22.098 L -123.698,22.098 L -123.698,-0 L -123.648,-0 L -123.648,-3.19133 L -123.247,-9.5614
 L -122.447,-15.8937 L -121.251,-22.1634 L -119.664,-28.3455 L -117.691,-34.4158 L -115.342,-40.3502 L -112.624,-46.1254
 L -109.549,-51.7186 L -106.129,-57.1077 L -102.378,-62.2713 L -98.3093,-67.1893 L -93.94,-71.842 L -89.2873,-76.2113
 L -84.3693,-80.2797 L -79.2057,-84.0314 L -73.8166,-87.4514 L -68.2234,-90.5263 L -62.4482,-93.2439 L -56.5138,-95.5935
 L -50.4435,-97.5658 L -44.2614,-99.1531 L -37.9917,-100.349 L -31.6594,-101.149 L -25.2893,-101.55 L -22.098,-101.55
 L -22.098,-101.6 L 0,-101.6 L 0,-101.55 L 3.19133,-101.55 L 9.5614,-101.149 L 15.8937,-100.349
 L 22.1634,-99.1531 L 28.3455,-97.5658 L 34.4158,-95.5935 L 40.3502,-93.2439 L 46.1254,-90.5263 L 51.7186,-87.4514
 L 57.1077,-84.0314 L 62.2713,-80.2797 L 67.1893,-76.2113 L 71.842,-71.842 L 76.2113,-67.1893 L 80.2797,-62.2713
 L 84.0314,-57.1077 L 87.4514,-51.7186 L 90.5263,-46.1254 L 93.2439,-40.3502 L 95.5935,-34.4158 L 97.5658,-28.3455
 L 99.1531,-22.1634 L 100.349,-15.8937 L 101.149,-9.5614 L 101.55,-3.19133 L 101.55,-0 L 101.6,-0
 L 101.6,22.098 L 152.4,22.098 L 152.4,-3.38396e-14 L 152.325,-3.38229e-14 L 152.325,-4.78701 L 151.724,-14.3421
 L 150.524,-23.8406 L 148.73,-33.245 L 146.349,-42.5182 L 143.39,-51.6236 L 139.866,-60.5253 L 135.789,-69.1882
 L 131.177,-77.5779 L 126.047,-85.6615 L 120.42,-93.407 L 114.317,-100.784 L 107.763,-107.763 L 100.784,-114.317
 L 93.407,-120.42 L 85.6615,-126.047 L 77.5779,-131.177 L 69.1882,-135.789 L 60.5253,-139.866 L 51.6236,-143.39
 L 42.5182,-146.349 L 33.245,-148.73 L 23.8406,-150.524 L 14.3421,-151.724 L 4.78701,-152.325 L 0,-152.325
 L 0,-152.4 L -22.098,-152.4 L -22.098,-152.325 L -26.885,-152.325 L -36.4401,-151.724 L -45.9386,-150.524
 L -55.343,-148.73 L -64.6162,-146.349 L -73.7216,-143.39 L -82.6233,-139.866 L -91.2862,-135.789 L -99.6759,-131.177
 L -107.76,-126.047 L -115.505,-120.42 L -122.882,-114.317 L -129.861,-107.763 L -136.415,-100.784 L -142.518,-93.407
 L -148.145,-85.6615 L -153.275,-77.5779 L -157.887,-69.1882 L -161.964,-60.5253 L -165.488,-51.6236 L -168.447,-42.5182
 L -170.828,-33.245 L -172.622,-23.8406 L -173.822,-14.3421 L -174.423,-4.78701 L -174.423,-3.38229e-14 L -174.498,-3.38396e-14
 z
M -164.506,11.5265 L -164.18,9.674 L -162.739,8.46484 L -160.857,8.46484 L -159.416,9.674 L -159.09,11.5265
 L -160.03,13.1556 L -161.798,13.799 L -163.566,13.1556 z
M -154.131,-43.8798 L -153.762,-46.509 L -152.854,-49.0039 L -151.447,-51.2555 L -149.602,-53.1653 L -147.401,-54.65
 L -144.94,-55.6446 L -142.325,-56.1056 L -139.671,-56.013 L -137.095,-55.3707 L -134.709,-54.2068 L -132.617,-52.5722
 L -130.91,-50.5383 L -129.664,-48.1941 L -128.932,-45.6419 L -128.747,-42.9933 L -129.116,-40.3642 L -130.024,-37.8692
 L -131.431,-35.6177 L -133.276,-33.7078 L -135.477,-32.2231 L -137.938,-31.2285 L -140.553,-30.7675 L -143.206,-30.8602
 L -145.783,-31.5025 L -148.169,-32.6663 L -150.261,-34.3009 L -151.968,-36.3348 L -153.214,-38.6791 L -153.946,-41.2312
 z
M -139.106,11.5265 L -138.78,9.674 L -137.339,8.46484 L -135.457,8.46484 L -134.016,9.674 L -133.69,11.5265
 L -134.63,13.1556 L -136.398,13.799 L -138.166,13.1556 z
M -124.583,-90.4672 L -124.168,-93.0896 L -123.216,-95.5682 L -121.77,-97.7949 L -119.893,-99.6723 L -117.666,-101.118
 L -115.188,-102.07 L -112.565,-102.485 L -109.914,-102.346 L -107.349,-101.659 L -104.984,-100.454 L -102.92,-98.7828
 L -101.249,-96.7195 L -100.044,-94.3538 L -99.3569,-91.7893 L -99.218,-89.1379 L -99.6333,-86.5156 L -100.585,-84.0369
 L -102.031,-81.8102 L -103.908,-79.9328 L -106.135,-78.4868 L -108.614,-77.5353 L -111.236,-77.12 L -113.887,-77.2589
 L -116.452,-77.9461 L -118.817,-79.1514 L -120.881,-80.8223 L -122.552,-82.8856 L -123.757,-85.2513 L -124.444,-87.8158
 z
M -78.2036,-120.227 L -77.7426,-122.842 L -76.748,-125.303 L -75.2633,-127.504 L -73.3535,-129.349 L -71.1019,-130.756
 L -68.607,-131.664 L -65.9778,-132.033 L -63.3292,-131.848 L -60.7771,-131.116 L -58.4328,-129.87 L -56.3989,-128.163
 L -54.7643,-126.071 L -53.6005,-123.685 L -52.9582,-121.108 L -52.8655,-118.455 L -53.3265,-115.84 L -54.3211,-113.379
 L -55.8058,-111.178 L -57.7157,-109.333 L -59.9672,-107.926 L -62.4622,-107.018 L -65.0913,-106.649 L -67.7399,-106.834
 L -70.2921,-107.566 L -72.6363,-108.812 L -74.6702,-110.519 L -76.3048,-112.611 L -77.4687,-114.997 L -78.111,-117.573
 z
M -13.6332,-113.844 L -13.6332,-114.756 L -13.3215,-115.612 L -12.7357,-116.31 L -11.9465,-116.766 L -11.049,-116.924
 L -10.1515,-116.766 L -9.36231,-116.31 L -8.77653,-115.612 L -8.46484,-114.756 L -8.46484,-113.844 L -8.77653,-112.988
 L -9.36231,-112.29 L -10.1515,-111.834 L -11.049,-111.676 L -11.9465,-111.834 L -12.7357,-112.29 L -13.3215,-112.988
 z
M -13.6332,-139.244 L -13.6332,-140.156 L -13.3215,-141.012 L -12.7357,-141.71 L -11.9465,-142.166 L -11.049,-142.324
 L -10.1515,-142.166 L -9.36231,-141.71 L -8.77653,-141.012 L -8.46484,-140.156 L -8.46484,-139.244 L -8.77653,-138.388
 L -9.36231,-137.69 L -10.1515,-137.234 L -11.049,-137.076 L -11.9465,-137.234 L -12.7357,-137.69 L -13.3215,-138.388
 z
M 30.7675,-118.455 L 30.8602,-121.108 L 31.5025,-123.685 L 32.6663,-126.071 L 34.3009,-128.163 L 36.3348,-129.87
 L 38.6791,-131.116 L 41.2312,-131.848 L 43.8798,-132.033 L 46.509,-131.664 L 49.0039,-130.756 L 51.2555,-129.349
 L 53.1653,-127.504 L 54.65,-125.303 L 55.6446,-122.842 L 56.1056,-120.227 L 56.013,-117.573 L 55.3707,-114.997
 L 54.2068,-112.611 L 52.5722,-110.519 L 50.5383,-108.812 L 48.1941,-107.566 L 45.6419,-106.834 L 42.9933,-106.649
 L 40.3642,-107.018 L 37.8692,-107.926 L 35.6177,-109.333 L 33.7078,-111.178 L 32.2231,-113.379 L 31.2285,-115.84
 z
M 77.12,-89.1379 L 77.2589,-91.7893 L 77.9461,-94.3538 L 79.1514,-96.7195 L 80.8223,-98.7828 L 82.8856,-100.454
 L 85.2513,-101.659 L 87.8158,-102.346 L 90.4672,-102.485 L 93.0896,-102.07 L 95.5682,-101.118 L 97.7949,-99.6723
 L 99.6723,-97.7949 L 101.118,-95.5682 L 102.07,-93.0896 L 102.485,-90.4672 L 102.346,-87.8158 L 101.659,-85.2513
 L 100.454,-82.8856 L 98.7828,-80.8223 L 96.7195,-79.1514 L 94.3538,-77.9461 L 91.7893,-77.2589 L 89.1379,-77.12
 L 86.5156,-77.5353 L 84.0369,-78.4868 L 81.8102,-79.9328 L 79.9328,-81.8102 L 78.4868,-84.0369 L 77.5353,-86.5156
 z
M 106.649,-42.9933 L 106.834,-45.6419 L 107.566,-48.1941 L 108.812,-50.5383 L 110.519,-52.5722 L 112.611,-54.2068
 L 114.997,-55.3707 L 117.573,-56.013 L 120.227,-56.1056 L 122.842,-55.6446 L 125.303,-54.65 L 127.504,-53.1653
 L 129.349,-51.2555 L 130.756,-49.0039 L 131.664,-46.509 L 132.033,-43.8798 L 131.848,-41.2312 L 131.116,-38.6791
 L 129.87,-36.3348 L 128.163,-34.3009 L 126.071,-32.6663 L 123.685,-31.5025 L 121.108,-30.8602 L 118.455,-30.7675
 L 115.84,-31.2285 L 113.379,-32.2231 L 111.178,-33.7078 L 109.333,-35.6177 L 107.926,-37.8692 L 107.018,-40.3642
 z
M 111.592,11.5265 L 111.918,9.674 L 113.359,8.46484 L 115.241,8.46484 L 116.682,9.674 L 117.008,11.5265
 L 116.068,13.1556 L 114.3,13.799 L 112.532,13.1556 z
M 136.992,11.5265 L 137.318,9.674 L 138.759,8.46484 L 140.641,8.46484 L 142.082,9.674 L 142.408,11.5265
 L 141.468,13.1556 L 139.7,13.799 L 137.932,13.1556 z
" stroke="black" fill="lightgray" stroke-width="0.5"/>
</svg>
