  0
SECTION
  2
BLOCKS
  0
ENDSEC
  0
SECTION
  2
ENTITIES
  0
LINE
  8
0
 10
-22.098
 20
101.6
 11
0
 21
101.6
  0
LINE
  8
0
 10
0
 20
101.6
 11
0
 21
101.55
  0
LINE
  8
0
 10
0
 20
101.55
 11
3.19133
 21
101.55
  0
LINE
  8
0
 10
3.19133
 20
101.55
 11
9.5614
 21
101.149
  0
LINE
  8
0
 10
9.5614
 20
101.149
 11
15.8937
 21
100.349
  0
LINE
  8
0
 10
15.8937
 20
100.349
 11
22.1634
 21
99.1531
  0
LINE
  8
0
 10
22.1634
 20
99.1531
 11
28.3455
 21
97.5658
  0
LINE
  8
0
 10
28.3455
 20
97.5658
 11
34.4158
 21
95.5935
  0
LINE
  8
0
 10
34.4158
 20
95.5935
 11
40.3502
 21
93.2439
  0
LINE
  8
0
 10
40.3502
 20
93.2439
 11
46.1254
 21
90.5263
  0
LINE
  8
0
 10
46.1254
 20
90.5263
 11
51.7186
 21
87.4514
  0
LINE
  8
0
 10
51.7186
 20
87.4514
 11
57.1077
 21
84.0314
  0
LINE
  8
0
 10
57.1077
 20
84.0314
 11
62.2713
 21
80.2797
  0
LINE
  8
0
 10
62.2713
 20
80.2797
 11
67.1893
 21
76.2113
  0
LINE
  8
0
 10
67.1893
 20
76.2113
 11
71.842
 21
71.842
  0
LINE
  8
0
 10
71.842
 20
71.842
 11
76.2113
 21
67.1893
  0
LINE
  8
0
 10
76.2113
 20
67.1893
 11
80.2797
 21
62.2713
  0
LINE
  8
0
 10
80.2797
 20
62.2713
 11
84.0314
 21
57.1077
  0
LINE
  8
0
 10
84.0314
 20
57.1077
 11
87.4514
 21
51.7186
  0
LINE
  8
0
 10
87.4514
 20
51.7186
 11
90.5263
 21
46.1254
  0
LINE
  8
0
 10
90.5263
 20
46.1254
 11
93.2439
 21
40.3502
  0
LINE
  8
0
 10
93.2439
 20
40.3502
 11
95.5935
 21
34.4158
  0
LINE
  8
0
 10
95.5935
 20
34.4158
 11
97.5658
 21
28.3455
  0
LINE
  8
0
 10
97.5658
 20
28.3455
 11
99.1531
 21
22.1634
  0
LINE
  8
0
 10
99.1531
 20
22.1634
 11
100.349
 21
15.8937
  0
LINE
  8
0
 10
100.349
 20
15.8937
 11
101.149
 21
9.5614
  0
LINE
  8
0
 10
101.149
 20
9.5614
 11
101.55
 21
3.19133
  0
LINE
  8
0
 10
101.55
 20
3.19133
 11
101.55
 21
0
  0
LINE
  8
0
 10
101.55
 20
0
 11
101.6
 21
0
  0
LINE
  8
0
 10
101.6
 20
0
 11
101.6
 21
-22.098
  0
LINE
  8
0
 10
101.6
 20
-22.098
 11
152.4
 21
-22.098
  0
LINE
  8
0
 10
152.4
 20
-22.098
 11
152.4
 21
3.38396e-14
  0
LINE
  8
0
 10
152.4
 20
3.38396e-14
 11
152.325
 21
3.38229e-14
  0
LINE
  8
0
 10
152.325
 20
3.38229e-14
 11
152.325
 21
4.78701
  0
LINE
  8
0
 10
152.325
 20
4.78701
 11
151.724
 21
14.3421
  0
LINE
  8
0
 10
151.724
 20
14.3421
 11
150.524
 21
23.8406
  0
LINE
  8
0
 10
150.524
 20
23.8406
 11
148.73
 21
33.245
  0
LINE
  8
0
 10
148.73
 20
33.245
 11
146.349
 21
42.5182
  0
LINE
  8
0
 10
146.349
 20
42.5182
 11
143.39
 21
51.6236
  0
LINE
  8
0
 10
143.39
 20
51.6236
 11
139.866
 21
60.5253
  0
LINE
  8
0
 10
139.866
 20
60.5253
 11
135.789
 21
69.1882
  0
LINE
  8
0
 10
135.789
 20
69.1882
 11
131.177
 21
77.5779
  0
LINE
  8
0
 10
131.177
 20
77.5779
 11
126.047
 21
85.6615
  0
LINE
  8
0
 10
126.047
 20
85.6615
 11
120.42
 21
93.407
  0
LINE
  8
0
 10
120.42
 20
93.407
 11
114.317
 21
100.784
  0
LINE
  8
0
 10
114.317
 20
100.784
 11
107.763
 21
107.763
  0
LINE
  8
0
 10
107.763
 20
107.763
 11
100.784
 21
114.317
  0
LINE
  8
0
 10
100.784
 20
114.317
 11
93.407
 21
120.42
  0
LINE
  8
0
 10
93.407
 20
120.42
 11
85.6615
 21
126.047
  0
LINE
  8
0
 10
85.6615
 20
126.047
 11
77.5779
 21
131.177
  0
LINE
  8
0
 10
77.5779
 20
131.177
 11
69.1882
 21
135.789
  0
LINE
  8
0
 10
69.1882
 20
135.789
 11
60.5253
 21
139.866
  0
LINE
  8
0
 10
60.5253
 20
139.866
 11
51.6236
 21
143.39
  0
LINE
  8
0
 10
51.6236
 20
143.39
 11
42.5182
 21
146.349
  0
LINE
  8
0
 10
42.5182
 20
146.349
 11
33.245
 21
148.73
  0
LINE
  8
0
 10
33.245
 20
148.73
 11
23.8406
 21
150.524
  0
LINE
  8
0
 10
23.8406
 20
150.524
 11
14.3421
 21
151.724
  0
LINE
  8
0
 10
14.3421
 20
151.724
 11
4.78701
 21
152.325
  0
LINE
  8
0
 10
4.78701
 20
152.325
 11
0
 21
152.325
  0
LINE
  8
0
 10
0
 20
152.325
 11
0
 21
152.4
  0
LINE
  8
0
 10
0
 20
152.4
 11
-22.098
 21
152.4
  0
LINE
  8
0
 10
-22.098
 20
152.4
 11
-22.098
 21
101.6
  0
LINE
  8
0
 10
-13.799
 20
114.3
 11
-13.1556
 21
116.068
  0
LINE
  8
0
 10
-13.1556
 20
116.068
 11
-11.5265
 21
117.008
  0
LINE
  8
0
 10
-11.5265
 20
117.008
 11
-9.674
 21
116.682
  0
LINE
  8
0
 10
-9.674
 20
116.682
 11
-8.46484
 21
115.241
  0
LINE
  8
0
 10
-8.46484
 20
115.241
 11
-8.46484
 21
113.359
  0
LINE
  8
0
 10
-8.46484
 20
113.359
 11
-9.674
 21
111.918
  0
LINE
  8
0
 10
-9.674
 20
111.918
 11
-11.5265
 21
111.592
  0
LINE
  8
0
 10
-11.5265
 20
111.592
 11
-13.1556
 21
112.532
  0
LINE
  8
0
 10
-13.1556
 20
112.532
 11
-13.799
 21
114.3
  0
LINE
  8
0
 10
-13.799
 20
139.7
 11
-13.1556
 21
141.468
  0
LINE
  8
0
 10
-13.1556
 20
141.468
 11
-11.5265
 21
142.408
  0
LINE
  8
0
 10
-11.5265
 20
142.408
 11
-9.674
 21
142.082
  0
LINE
  8
0
 10
-9.674
 20
142.082
 11
-8.46484
 21
140.641
  0
LINE
  8
0
 10
-8.46484
 20
140.641
 11
-8.46484
 21
138.759
  0
LINE
  8
0
 10
-8.46484
 20
138.759
 11
-9.674
 21
137.318
  0
LINE
  8
0
 10
-9.674
 20
137.318
 11
-11.5265
 21
136.992
  0
LINE
  8
0
 10
-11.5265
 20
136.992
 11
-13.1556
 21
137.932
  0
LINE
  8
0
 10
-13.1556
 20
137.932
 11
-13.799
 21
139.7
  0
LINE
  8
0
 10
30.7675
 20
118.455
 11
30.8602
 21
121.108
  0
LINE
  8
0
 10
30.8602
 20
121.108
 11
31.5025
 21
123.685
  0
LINE
  8
0
 10
31.5025
 20
123.685
 11
32.6663
 21
126.071
  0
LINE
  8
0
 10
32.6663
 20
126.071
 11
34.3009
 21
128.163
  0
LINE
  8
0
 10
34.3009
 20
128.163
 11
36.3348
 21
129.87
  0
LINE
  8
0
 10
36.3348
 20
129.87
 11
38.6791
 21
131.116
  0
LINE
  8
0
 10
38.6791
 20
131.116
 11
41.2312
 21
131.848
  0
LINE
  8
0
 10
41.2312
 20
131.848
 11
43.8798
 21
132.033
  0
LINE
  8
0
 10
43.8798
 20
132.033
 11
46.509
 21
131.664
  0
LINE
  8
0
 10
46.509
 20
131.664
 11
49.0039
 21
130.756
  0
LINE
  8
0
 10
49.0039
 20
130.756
 11
51.2555
 21
129.349
  0
LINE
  8
0
 10
51.2555
 20
129.349
 11
53.1653
 21
127.504
  0
LINE
  8
0
 10
53.1653
 20
127.504
 11
54.65
 21
125.303
  0
LINE
  8
0
 10
54.65
 20
125.303
 11
55.6446
 21
122.842
  0
LINE
  8
0
 10
55.6446
 20
122.842
 11
56.1056
 21
120.227
  0
LINE
  8
0
 10
56.1056
 20
120.227
 11
56.013
 21
117.573
  0
LINE
  8
0
 10
56.013
 20
117.573
 11
55.3707
 21
114.997
  0
LINE
  8
0
 10
55.3707
 20
114.997
 11
54.2068
 21
112.611
  0
LINE
  8
0
 10
54.2068
 20
112.611
 11
52.5722
 21
110.519
  0
LINE
  8
0
 10
52.5722
 20
110.519
 11
50.5383
 21
108.812
  0
LINE
  8
0
 10
50.5383
 20
108.812
 11
48.1941
 21
107.566
  0
LINE
  8
0
 10
48.1941
 20
107.566
 11
45.6419
 21
106.834
  0
LINE
  8
0
 10
45.6419
 20
106.834
 11
42.9933
 21
106.649
  0
LINE
  8
0
 10
42.9933
 20
106.649
 11
40.3642
 21
107.018
  0
LINE
  8
0
 10
40.3642
 20
107.018
 11
37.8692
 21
107.926
  0
LINE
  8
0
 10
37.8692
 20
107.926
 11
35.6177
 21
109.333
  0
LINE
  8
0
 10
35.6177
 20
109.333
 11
33.7078
 21
111.178
  0
LINE
  8
0
 10
33.7078
 20
111.178
 11
32.2231
 21
113.379
  0
LINE
  8
0
 10
32.2231
 20
113.379
 11
31.2285
 21
115.84
  0
LINE
  8
0
 10
31.2285
 20
115.84
 11
30.7675
 21
118.455
  0
LINE
  8
0
 10
77.12
 20
89.1379
 11
77.2589
 21
91.7893
  0
LINE
  8
0
 10
77.2589
 20
91.7893
 11
77.9461
 21
94.3538
  0
LINE
  8
0
 10
77.9461
 20
94.3538
 11
79.1514
 21
96.7195
  0
LINE
  8
0
 10
79.1514
 20
96.7195
 11
80.8223
 21
98.7828
  0
LINE
  8
0
 10
80.8223
 20
98.7828
 11
82.8856
 21
100.454
  0
LINE
  8
0
 10
82.8856
 20
100.454
 11
85.2513
 21
101.659
  0
LINE
  8
0
 10
85.2513
 20
101.659
 11
87.8158
 21
102.346
  0
LINE
  8
0
 10
87.8158
 20
102.346
 11
90.4672
 21
102.485
  0
LINE
  8
0
 10
90.4672
 20
102.485
 11
93.0896
 21
102.07
  0
LINE
  8
0
 10
93.0896
 20
102.07
 11
95.5682
 21
101.118
  0
LINE
  8
0
 10
95.5682
 20
101.118
 11
97.7949
 21
99.6723
  0
LINE
  8
0
 10
97.7949
 20
99.6723
 11
99.6723
 21
97.7949
  0
LINE
  8
0
 10
99.6723
 20
97.7949
 11
101.118
 21
95.5682
  0
LINE
  8
0
 10
101.118
 20
95.5682
 11
102.07
 21
93.0896
  0
LINE
  8
0
 10
102.07
 20
93.0896
 11
102.485
 21
90.4672
  0
LINE
  8
0
 10
102.485
 20
90.4672
 11
102.346
 21
87.8158
  0
LINE
  8
0
 10
102.346
 20
87.8158
 11
101.659
 21
85.2513
  0
LINE
  8
0
 10
101.659
 20
85.2513
 11
100.454
 21
82.8856
  0
LINE
  8
0
 10
100.454
 20
82.8856
 11
98.7828
 21
80.8223
  0
LINE
  8
0
 10
98.7828
 20
80.8223
 11
96.7195
 21
79.1514
  0
LINE
  8
0
 10
96.7195
 20
79.1514
 11
94.3538
 21
77.9461
  0
LINE
  8
0
 10
94.3538
 20
77.9461
 11
91.7893
 21
77.2589
  0
LINE
  8
0
 10
91.7893
 20
77.2589
 11
89.1379
 21
77.12
  0
LINE
  8
0
 10
89.1379
 20
77.12
 11
86.5156
 21
77.5353
  0
LINE
  8
0
 10
86.5156
 20
77.5353
 11
84.0369
 21
78.4868
  0
LINE
  8
0
 10
84.0369
 20
78.4868
 11
81.8102
 21
79.9328
  0
LINE
  8
0
 10
81.8102
 20
79.9328
 11
79.9328
 21
81.8102
  0
LINE
  8
0
 10
79.9328
 20
81.8102
 11
78.4868
 21
84.0369
  0
LINE
  8
0
 10
78.4868
 20
84.0369
 11
77.5353
 21
86.5156
  0
LINE
  8
0
 10
77.5353
 20
86.5156
 11
77.12
 21
89.1379
  0
LINE
  8
0
 10
106.649
 20
42.9933
 11
106.834
 21
45.6419
  0
LINE
  8
0
 10
106.834
 20
45.6419
 11
107.566
 21
48.1941
  0
LINE
  8
0
 10
107.566
 20
48.1941
 11
108.812
 21
50.5383
  0
LINE
  8
0
 10
108.812
 20
50.5383
 11
110.519
 21
52.5722
  0
LINE
  8
0
 10
110.519
 20
52.5722
 11
112.611
 21
54.2068
  0
LINE
  8
0
 10
112.611
 20
54.2068
 11
114.997
 21
55.3707
  0
LINE
  8
0
 10
114.997
 20
55.3707
 11
117.573
 21
56.013
  0
LINE
  8
0
 10
117.573
 20
56.013
 11
120.227
 21
56.1056
  0
LINE
  8
0
 10
120.227
 20
56.1056
 11
122.842
 21
55.6446
  0
LINE
  8
0
 10
122.842
 20
55.6446
 11
125.303
 21
54.65
  0
LINE
  8
0
 10
125.303
 20
54.65
 11
127.504
 21
53.1653
  0
LINE
  8
0
 10
127.504
 20
53.1653
 11
129.349
 21
51.2555
  0
LINE
  8
0
 10
129.349
 20
51.2555
 11
130.756
 21
49.0039
  0
LINE
  8
0
 10
130.756
 20
49.0039
 11
131.664
 21
46.509
  0
LINE
  8
0
 10
131.664
 20
46.509
 11
132.033
 21
43.8798
  0
LINE
  8
0
 10
132.033
 20
43.8798
 11
131.848
 21
41.2312
  0
LINE
  8
0
 10
131.848
 20
41.2312
 11
131.116
 21
38.6791
  0
LINE
  8
0
 10
131.116
 20
38.6791
 11
129.87
 21
36.3348
  0
LINE
  8
0
 10
129.87
 20
36.3348
 11
128.163
 21
34.3009
  0
LINE
  8
0
 10
128.163
 20
34.3009
 11
126.071
 21
32.6663
  0
LINE
  8
0
 10
126.071
 20
32.6663
 11
123.685
 21
31.5025
  0
LINE
  8
0
 10
123.685
 20
31.5025
 11
121.108
 21
30.8602
  0
LINE
  8
0
 10
121.108
 20
30.8602
 11
118.455
 21
30.7675
  0
LINE
  8
0
 10
118.455
 20
30.7675
 11
115.84
 21
31.2285
  0
LINE
  8
0
 10
115.84
 20
31.2285
 11
113.379
 21
32.2231
  0
LINE
  8
0
 10
113.379
 20
32.2231
 11
111.178
 21
33.7078
  0
LINE
  8
0
 10
111.178
 20
33.7078
 11
109.333
 21
35.6177
  0
LINE
  8
0
 10
109.333
 20
35.6177
 11
107.926
 21
37.8692
  0
LINE
  8
0
 10
107.926
 20
37.8692
 11
107.018
 21
40.3642
  0
LINE
  8
0
 10
107.018
 20
40.3642
 11
106.649
 21
42.9933
  0
LINE
  8
0
 10
111.592
 20
-11.5265
 11
111.918
 21
-9.674
  0
LINE
  8
0
 10
111.918
 20
-9.674
 11
113.359
 21
-8.46484
  0
LINE
  8
0
 10
113.359
 20
-8.46484
 11
115.241
 21
-8.46484
  0
LINE
  8
0
 10
115.241
 20
-8.46484
 11
116.682
 21
-9.674
  0
LINE
  8
0
 10
116.682
 20
-9.674
 11
117.008
 21
-11.5265
  0
LINE
  8
0
 10
117.008
 20
-11.5265
 11
116.068
 21
-13.1556
  0
LINE
  8
0
 10
116.068
 20
-13.1556
 11
114.3
 21
-13.799
  0
LINE
  8
0
 10
114.3
 20
-13.799
 11
112.532
 21
-13.1556
  0
LINE
  8
0
 10
112.532
 20
-13.1556
 11
111.592
 21
-11.5265
  0
LINE
  8
0
 10
136.992
 20
-11.5265
 11
137.318
 21
-9.674
  0
LINE
  8
0
 10
137.318
 20
-9.674
 11
138.759
 21
-8.46484
  0
LINE
  8
0
 10
138.759
 20
-8.46484
 11
140.641
 21
-8.46484
  0
LINE
  8
0
 10
140.641
 20
-8.46484
 11
142.082
 21
-9.674
  0
LINE
  8
0
 10
142.082
 20
-9.674
 11
142.408
 21
-11.5265
  0
LINE
  8
0
 10
142.408
 20
-11.5265
 11
141.468
 21
-13.1556
  0
LINE
  8
0
 10
141.468
 20
-13.1556
 11
139.7
 21
-13.799
  0
LINE
  8
0
 10
139.7
 20
-13.799
 11
137.932
 21
-13.1556
  0
LINE
  8
0
 10
137.932
 20
-13.1556
 11
136.992
 21
-11.5265
  0
ENDSEC
  0
SECTION
  2
OBJECTS
  0
DICTIONARY
  0
ENDSEC
  0
EOF
