<?xml version="1.0" standalone="no"?>
<!DOCTYPE svg PUBLIC "-//W3C//DTD SVG 1.1//EN" "http://www.w3.org/Graphics/SVG/1.1/DTD/svg11.dtd">
<svg width="165mm" height="165mm" viewBox="-12 -153 165 165" xmlns="http://www.w3.org/2000/svg" version="1.1">
<title>OpenSCAD Model</title>
<path d="
M -11.049,-101.6 L 0,-101.6 L 0,-101.55 L 3.19133,-101.55 L 9.5614,-101.149 L 15.8937,-100.349
 L 22.1634,-99.1531 L 28.3455,-97.5658 L 34.4158,-95.5935 L 40.3502,-93.2439 L 46.1254,-90.5263 L 51.7186,-87.4514
 L 57.1077,-84.0314 L 62.2713,-80.2797 L 67.1893,-76.2113 L 71.842,-71.842 L 76.2113,-67.1893 L 80.2797,-62.2713
 L 84.0314,-57.1077 L 87.4514,-51.7186 L 90.5263,-46.1254 L 93.2439,-40.3502 L 95.5935,-34.4158 L 97.5658,-28.3455
 L 99.1531,-22.1634 L 100.349,-15.8937 L 101.149,-9.5614 L 101.55,-3.19133 L 101.55,-0 L 101.6,-0
 L 101.6,11.049 L 152.4,11.049 L 152.4,-11.049 L 151.931,-11.049 L 151.724,-14.3421 L 150.524,-23.8406
 L 148.73,-33.245 L 146.349,-42.5182 L 143.39,-51.6236 L 139.866,-60.5253 L 135.789,-69.1882 L 131.177,-77.5779
 L 126.047,-85.6615 L 120.42,-93.407 L 114.317,-100.784 L 107.763,-107.763 L 100.784,-114.317 L 93.407,-120.42
 L 85.6615,-126.047 L 77.5779,-131.177 L 69.1882,-135.789 L 60.5253,-139.866 L 51.6236,-143.39 L 42.5182,-146.349
 L 33.245,-148.73 L 23.8406,-150.524 L 14.3421,-151.724 L 11.049,-151.931 L 11.049,-152.4 L -11.049,-152.4
 z
M -7.1696,-114.3 L -6.52622,-116.068 L -4.89713,-117.008 L -3.0446,-116.682 L -1.83545,-115.241 L -1.83545,-113.359
 L -3.0446,-111.918 L -4.89713,-111.592 L -6.52622,-112.532 z
M -7.1696,-139.7 L -6.52622,-141.468 L -4.89713,-142.408 L -3.0446,-142.082 L -1.83545,-140.641 L -1.83545,-138.759
 L -3.0446,-137.318 L -4.89713,-136.992 L -6.52622,-137.932 z
M 11.299,-114.3 L 11.9424,-116.068 L 13.5715,-117.008 L 15.424,-116.682 L 16.6332,-115.241 L 16.6332,-113.359
 L 15.424,-111.918 L 13.5715,-111.592 L 11.9424,-112.532 z
M 11.299,-139.7 L 11.9424,-141.468 L 13.5715,-142.408 L 15.424,-142.082 L 16.6332,-140.641 L 16.6332,-138.759
 L 15.424,-137.318 L 13.5715,-136.992 L 11.9424,-137.932 z
M 30.7675,-118.455 L 30.8602,-121.108 L 31.5025,-123.685 L 32.6663,-126.071 L 34.3009,-128.163 L 36.3348,-129.87
 L 38.6791,-131.116 L 41.2312,-131.848 L 43.8798,-132.033 L 46.509,-131.664 L 49.0039,-130.756 L 51.2555,-129.349
 L 53.1653,-127.504 L 54.65,-125.303 L 55.6446,-122.842 L 56.1056,-120.227 L 56.013,-117.573 L 55.3707,-114.997
 L 54.2068,-112.611 L 52.5722,-110.519 L 50.5383,-108.812 L 48.1941,-107.566 L 45.6419,-106.834 L 42.9933,-106.649
 L 40.3642,-107.018 L 37.8692,-107.926 L 35.6177,-109.333 L 33.7078,-111.178 L 32.2231,-113.379 L 31.2285,-115.84
 z
M 77.12,-89.1379 L 77.2589,-91.7893 L 77.9461,-94.3538 L 79.1514,-96.7195 L 80.8223,-98.7828 L 82.8856,-100.454
 L 85.2513,-101.659 L 87.8158,-102.346 L 90.4672,-102.485 L 93.0896,-102.07 L 95.5682,-101.118 L 97.7949,-99.6723
 L 99.6723,-97.7949 L 101.118,-95.5682 L 102.07,-93.0896 L 102.485,-90.4672 L 102.346,-87.8158 L 101.659,-85.2513
 L 100.454,-82.8856 L 98.7828,-80.8223 L 96.7195,-79.1514 L 94.3538,-77.9461 L 91.7893,-77.2589 L 89.1379,-77.12
 L 86.5156,-77.5353 L 84.0369,-78.4868 L 81.8102,-79.9328 L 79.9328,-81.8102 L 78.4868,-84.0369 L 77.5353,-86.5156
 z
M 106.649,-42.9933 L 106.834,-45.6419 L 107.566,-48.1941 L 108.812,-50.5383 L 110.519,-52.5722 L 112.611,-54.2068
 L 114.997,-55.3707 L 117.573,-56.013 L 120.227,-56.1056 L 122.842,-55.6446 L 125.303,-54.65 L 127.504,-53.1653
 L 129.349,-51.2555 L 130.756,-49.0039 L 131.664,-46.509 L 132.033,-43.8798 L 131.848,-41.2312 L 131.116,-38.6791
 L 129.87,-36.3348 L 128.163,-34.3009 L 126.071,-32.6663 L 123.685,-31.5025 L 121.108,-30.8602 L 118.455,-30.7675
 L 115.84,-31.2285 L 113.379,-32.2231 L 111.178,-33.7078 L 109.333,-35.6177 L 107.926,-37.8692 L 107.018,-40.3642
 z
M 111.592,-13.5715 L 111.918,-15.424 L 113.359,-16.6332 L 115.241,-16.6332 L 116.682,-15.424 L 117.008,-13.5715
 L 116.068,-11.9424 L 114.3,-11.299 L 112.532,-11.9424 z
M 111.592,4.89713 L 111.918,3.0446 L 113.359,1.83545 L 115.241,1.83545 L 116.682,3.0446 L 117.008,4.89713
 L 116.068,6.52622 L 114.3,7.1696 L 112.532,6.52622 z
M 136.992,4.89713 L 137.318,3.0446 L 138.759,1.83545 L 140.641,1.83545 L 142.082,3.0446 L 142.408,4.89713
 L 141.468,6.52622 L 139.7,7.1696 L 137.932,6.52622 z
M 136.992,-13.5715 L 137.318,-15.424 L 138.759,-16.6332 L 140.641,-16.6332 L 142.082,-15.424 L 142.408,-13.5715
 L 141.468,-11.9424 L 139.7,-11.299 L 137.932,-11.9424 z
" stroke="black" fill="lightgray" stroke-width="0.5"/>
</svg>
